<svg width="304" height="120" viewBox="0 0 304 120" fill="none" xmlns="http://www.w3.org/2000/svg">
<path fill-rule="evenodd" clip-rule="evenodd" d="M163.699 26.538C163.652 26.0996 163.282 22.6458 161.467 21.4989C159.473 20.2389 157.175 20.4494 155.708 21.8004C152.667 24.6022 153.489 29.9741 153.38 47.2645C153.369 49.0589 152.528 48.7271 149.844 48.7271C142.057 48.7271 141.97 48.7826 141.616 48.4044C141.336 48.1044 141.375 48.0418 141.375 39.6892C141.375 14.0725 141.356 14.0392 141.533 13.7897C141.947 13.2085 142.09 13.3115 146.814 13.3115C152.725 13.3115 153.091 13.1832 153.307 13.9569C153.434 14.4094 153.286 16.7375 153.271 16.9789C153.22 17.7764 153.117 18.1723 153.902 18.0183C154.27 17.9466 154.15 17.8082 154.52 17.0693C154.641 16.8279 155.544 15.2639 155.644 15.1083C156.555 13.6902 159.905 12.763 160.986 12.6297C169.494 11.5838 172.727 15.7356 172.757 15.7654C174.862 17.8658 174.34 18.5172 175.086 18.5607C175.518 18.5859 175.504 18.5031 175.772 18.1647C178.379 14.875 178.228 14.6649 180.05 13.7342C183.965 11.7353 189.69 12.3994 192.197 13.5827C198.939 16.7638 198.523 22.8367 198.524 29.5888C198.525 47.9327 198.535 47.9519 198.373 48.3029C198.114 48.8624 196.538 48.7271 195.801 48.7271C187.041 48.7276 186.865 48.7958 186.644 48.3155C186.144 47.2302 187.011 30.0241 186.057 25.0729C184.977 19.4667 179.281 19.9 177.618 22.5165C175.386 26.0274 176.014 29.4348 175.928 47.2625C175.927 47.4736 176.091 48.5554 175.084 48.7074C174.832 48.7458 165.015 48.723 164.999 48.722C164.913 48.716 164.26 48.669 164.035 48.2493C163.641 47.516 164.201 32.2498 163.699 26.538Z" fill="white"/>
<path fill-rule="evenodd" clip-rule="evenodd" d="M81.6782 49.5129C73.9105 50.0593 67.5609 47.8806 64.1934 44.5344C60.6401 41.0038 59.8452 35.5617 60.2931 35.0334C60.6683 34.591 60.7709 34.6653 66.5155 34.6653C71.5187 34.6653 71.844 34.493 72.2934 35.5516C72.3126 35.5965 73.4292 40.1735 79.137 40.7467C82.5888 41.0937 86.6385 38.7736 85.2144 35.1385C83.3175 30.2988 72.1934 31.0968 65.914 25.6633C65.7716 25.54 61.6052 22.5867 61.8289 15.4431C62.0819 7.37039 69.1012 3.85696 73.5706 2.7651C75.9306 2.18887 87.4441 0.261208 93.6942 7.94611C96.0198 10.806 96.7794 14.7927 96.9016 15.433C96.9662 15.7729 97.093 16.1098 97.0824 16.4557C97.0799 16.538 97.0647 17.035 96.3804 17.2006C96.1557 17.2552 96.1516 17.2526 87.7264 17.2511C85.9098 17.2511 85.3815 17.6476 84.8715 15.9032C84.7897 15.6234 83.7882 10.6101 78.1476 11.0646C73.8656 11.4095 72.4338 17.0824 78.1204 19.5116C84.2109 22.1135 90.409 21.7493 95.3638 27.5162C97.8869 30.4524 98.0338 34.488 98.0571 35.1339C98.2242 39.716 96.9339 41.5391 95.3163 43.742C94.1699 45.3035 92.0539 46.5146 91.7312 46.6989C87.7839 48.9589 84.6407 49.3912 81.6782 49.5129Z" fill="white"/>
<path fill-rule="evenodd" clip-rule="evenodd" d="M258.424 0.0187545C259.98 0.0207745 261.012 -0.262542 261.05 1.30504C261.119 4.20235 260.895 37.9605 261.188 39.1296C261.804 41.58 264.168 40.3881 264.884 41.2729C265.088 41.5259 265.071 41.6774 265.067 47.2645C265.066 48.1412 265.125 48.5306 264.582 48.9381C264.257 49.182 256.808 50.0027 253.421 48.6558C248.603 46.7403 249.004 43.0097 249.004 34.1339C249.004 0.903549 249.001 0.902036 249.021 0.830828C249.261 -0.00700175 249.457 0.0677413 250.334 0.0541058C252.229 0.0238045 255.721 0.110668 258.424 0.0187545Z" fill="white"/>
<path fill-rule="evenodd" clip-rule="evenodd" d="M212.972 61.6234C205.768 61.6234 205.68 61.6628 205.393 61.4097C205.028 61.0886 205.077 60.9901 205.077 48.7797C205.077 14.1105 205.072 14.106 205.118 13.9893C205.45 13.1388 206.388 13.3116 209.437 13.3116C216.502 13.3116 216.787 13.1979 217.022 13.9297C217.268 14.6963 216.842 17.1992 217.066 17.429C217.608 17.985 218.035 17.0896 218.072 17.0113C218.36 16.4063 219.176 15.0812 219.682 14.5973C221.356 12.9964 230.546 10.7062 236.659 14.5175C246.446 20.6192 245.265 35.9562 241.165 42.1578C240.173 43.6578 235.696 50.9609 224.068 49.3913C223.682 49.3392 220.587 48.9216 219.424 47.906C218.327 46.948 218.089 45.2279 217.535 45.1627C217.033 45.1041 216.991 45.2274 216.958 45.7339C216.924 46.2591 217.106 46.2556 217.106 52.3148C217.106 60.9456 217.142 60.9961 216.894 61.3062C216.569 61.7117 215.431 61.6234 212.972 61.6234ZM231.881 31.1079C231.79 33.8416 231.613 35.592 230.135 38.1691C227.481 42.7971 218.059 43.4102 217.212 33.6108C215.96 19.1283 224.824 20.0742 227.214 21.2867C231.718 23.572 231.855 28.8494 231.881 31.1079Z" fill="white"/>
<path fill-rule="evenodd" clip-rule="evenodd" d="M25.6779 93.9517C17.0349 93.9517 17.0077 93.9189 16.5324 94.1517C16.1895 94.3199 16.1779 94.378 14.2356 100.355C12.9473 104.32 12.8241 105.343 11.9984 105.715C11.6686 105.864 6.96027 105.783 1.94188 105.801C1.82269 105.801 0.590938 105.806 0.452058 105.772C-0.499402 105.541 0.179343 104.388 1.30049 101.259C14.4371 64.5944 14.5513 64.6413 15.6663 61.4441C16.2345 59.8149 16.7082 60.0941 20.1226 60.0941C30.2907 60.0941 30.364 60.0482 30.7412 60.386C31.1856 60.784 32.4053 64.6045 33.6698 68.0083C35.8091 73.7656 41.3522 89.2904 42.0138 91.1433C42.392 92.2029 45.7196 101.523 46.7953 104.37C47.4821 106.189 45.9201 105.804 44.8687 105.801C35.1414 105.768 34.4364 106.017 34.0026 105.216C33.785 104.814 30.7675 95.0532 30.47 94.6012C29.9584 93.8235 29.3105 93.9861 27.1929 93.9861C26.4314 93.9861 26.4415 93.9689 25.6779 93.9517ZM25.974 81.1606C27.2199 85.4639 27.3669 85.5796 26.9922 85.9164C26.7109 86.1694 26.3796 86.1038 21.1324 86.1103C21.0208 86.1108 19.9314 86.1118 19.741 85.9775C19.0971 85.5225 19.5567 85.3321 20.7536 81.1389C21.5142 78.4729 22.558 75.3953 22.7742 74.0787C22.8565 73.5762 22.7964 73.5085 23.2373 73.2449C23.7343 72.9485 23.6464 73.35 23.8454 73.8878C24.056 74.4565 23.8958 74.5024 25.974 81.1606Z" fill="white"/>
<path fill-rule="evenodd" clip-rule="evenodd" d="M19.0438 36.8783C17.2823 36.8813 16.448 36.6112 15.9471 38.1525C12.7079 48.1186 12.7932 48.4827 11.9473 48.667C11.1595 48.8382 11.1514 48.67 1.87314 48.7276C1.75547 48.7281 0.542406 48.7357 0.402515 48.6716C0.380799 48.662 0.0257695 48.2605 0.0222344 48.2423C-0.109071 47.6211 0.172226 47.6519 5.64615 32.1968C6.0941 30.9312 8.45002 24.2796 11.364 16.4199C12.5599 13.1948 15.8087 3.82873 16.1465 3.43633C16.5657 2.94999 16.6854 3.0207 25.1041 3.0207C29.9154 3.0207 30.5775 2.92626 30.9639 3.46915C31.2249 3.8358 45.2857 43.1067 46.2842 45.7611C46.3574 45.9556 47.1366 48.0272 47.0781 48.2342C46.9013 48.8604 45.9635 48.7271 42.2748 48.7271C34.7808 48.7271 34.6707 48.8029 34.1733 48.2908C33.9521 48.063 33.1198 45.3005 32.7491 44.2117C30.5371 37.7161 30.9593 37.1783 29.6963 36.9394C29.2448 36.8546 22.0502 36.9798 19.0438 36.8783ZM24.9397 19.0307C26.7133 24.9672 26.7007 24.9637 26.8593 25.4783C27.2865 26.8676 27.5693 27.5312 26.1129 27.5342C20.5511 27.5453 20.5445 27.6115 20.0743 27.4994C19.0587 27.2565 19.8966 25.6965 20.6546 23.0522C21.4243 20.37 22.5045 17.098 22.7141 15.998C22.7373 15.8783 23.1242 13.8502 23.6711 14.8087C24.0817 15.5274 23.8817 15.5955 24.9397 19.0307Z" fill="white"/>
<path fill-rule="evenodd" clip-rule="evenodd" d="M114.002 49.5107C111.937 49.6551 108.385 49.9111 104.591 47.0265C101.255 44.4887 98.8221 36.7503 104.356 31.5688C110.05 26.2368 121.205 27.0039 121.541 26.909C121.757 26.8473 122.744 26.8216 122.234 24.0061C122.158 23.5839 121.625 20.6426 118.031 20.678C114.041 20.7169 113.844 24.7146 113.515 25.0692C113.128 25.4863 112.991 25.3969 104.897 25.4565C104.185 25.4616 103.043 25.5474 102.703 25.2803C102.371 25.0187 102.13 24.7752 102.598 22.5708C103.936 16.2682 111.067 11.3987 122.55 12.635C130.361 13.4759 132.596 18.1696 133.018 19.0569C135.62 24.5227 133.487 34.1181 134.903 47.2456C135.1 49.0743 134.193 48.7269 131.664 48.7269C123.916 48.7269 123.827 48.7834 123.453 48.3895C122.92 47.8274 122.956 44.917 122.901 44.818C122.848 44.7215 122.703 44.7226 122.605 44.6715C122.48 44.6064 122.374 44.4498 122.235 44.47C122.056 44.4963 121.62 46.3896 121.278 46.8992C121.121 47.135 120.509 48.1451 116.487 49.1738C115.184 49.5076 114.352 49.4889 114.002 49.5107ZM119.058 33.8313C119.177 33.8268 120.555 33.7728 120.555 33.7728C122.225 33.7389 122.417 34.0839 122.381 35.6439C122.219 42.7015 114.563 42.4899 113.582 39.1522C112.944 36.9822 114.55 35.606 114.79 35.4009C116.295 34.1126 118.268 33.9505 119.058 33.8313Z" fill="white"/>
<path fill-rule="evenodd" clip-rule="evenodd" d="M287.223 49.5079C266.391 50.97 264.015 29.3071 270.625 20.049C271.19 19.2577 273.792 15.2857 279.628 13.4065C282.263 12.5581 289.006 11.4152 294.399 14.2004C296.091 15.0741 296.093 15.0579 297.632 16.1912C298.086 16.5255 300.999 19.0622 302.522 22.96C302.807 23.6872 304.36 27.6617 303.923 32.623C303.769 34.3719 303.08 34.0689 299.835 34.0689C280.245 34.0689 280.244 34.0659 280.13 34.0896C279.081 34.3073 279.48 35.7572 279.97 37.2218C281.859 42.8548 288.114 41.9568 290.214 39.6651C291.586 38.1672 290.909 37.0657 292.761 37.0071C292.836 37.0046 302.347 37.0006 302.393 37.0081C303.388 37.1778 303.089 38.1146 302.444 39.7226C301.941 40.9771 300.446 43.5416 298.693 45.0925C294.03 49.2155 288.91 49.4281 287.223 49.5079ZM285.201 20.6758C285.438 20.6783 287.062 20.694 288.116 21.2126C288.53 21.4161 289.381 22.1312 289.714 22.5358C289.92 22.7847 292.515 26.5633 290.252 26.679C289.627 26.7113 281.875 26.6855 281.146 26.683C279.805 26.6785 279.724 26.2179 280.12 25.0371C281.576 20.6859 284.812 20.7374 285.201 20.6758Z" fill="white"/>
<path fill-rule="evenodd" clip-rule="evenodd" d="M160.48 119.26C155.912 120.051 151.784 119.617 151.284 119.139C150.924 118.795 150.861 118.734 150.944 112.924C150.974 110.809 152.346 111.905 155.481 111.526C158.17 111.201 159.299 109.519 159.904 108.324C160.639 106.872 159.819 105.994 158.438 102.342C158.349 102.105 150.37 81.9362 150.016 81.0646C149.691 80.2636 146.04 71.2732 146.077 71.0071C146.088 70.9273 146.157 70.4349 146.863 70.3783C146.867 70.3778 156.174 70.3844 156.983 70.3849C158.076 70.3854 159.077 70.0935 159.515 71.5096C159.626 71.8681 164.855 90.516 165.057 91.2094C165.962 94.3128 165.945 95.9688 166.71 94.9294C167.173 94.2997 166.87 94.1916 167.564 91.7054C172.93 72.4615 173.209 71.2197 173.48 70.8803C173.949 70.2955 174.085 70.3849 180.719 70.3849C185.75 70.3849 185.966 70.34 186.206 70.5773C186.714 71.0788 186.304 71.2359 179.531 88.6121C173.212 104.822 171.899 107.772 171.17 109.41C167.909 116.736 163.987 118.207 163.072 118.55C161.81 119.023 161.803 118.965 160.48 119.26Z" fill="white"/>
<path fill-rule="evenodd" clip-rule="evenodd" d="M83.2447 60.111C90.6892 60.6161 93.8617 62.1296 97.3984 64.4315C97.8231 64.7083 101.653 67.5349 103.511 71.9901C106.608 79.4175 106.905 92.9157 98.0731 100.503C91.1195 106.477 84.2588 105.801 71.1303 105.801C63.61 105.801 63.4171 105.89 63.1247 105.312C62.9848 105.037 62.9994 105.02 62.9994 62.9265C62.9994 61.9705 62.855 60.5009 63.461 60.2418C63.862 60.0706 63.8807 60.0944 73.1503 60.0944C81.3574 60.0944 81.3549 60.0929 83.2447 60.111ZM83.7897 69.7936C85.63 70.1653 91.3231 71.2622 92.6634 79.6198C92.9149 81.1899 93.6947 89.0859 88.7475 93.67C85.4396 96.7355 81.056 96.4178 77.1901 96.4118C77.0664 96.4118 75.8412 96.4097 75.6432 96.3476C75.0675 96.1663 75.0342 95.3573 75.0301 95.2573C75.0301 95.2553 75.0154 70.6446 75.0377 70.484C75.1569 69.626 75.3094 69.5815 76.1836 69.5522C80.7121 69.3982 83.1857 69.7158 83.7897 69.7936Z" fill="white"/>
<path fill-rule="evenodd" clip-rule="evenodd" d="M122.151 106.581C119.632 106.756 117.322 106.776 114.178 105.132C114.11 105.097 112.338 104.04 111.244 102.65C107.717 98.1717 107.921 88.9081 117.582 85.6265C124.037 83.4342 128.988 84.2029 129.682 83.9736C130.518 83.6968 130.424 83.4994 130.419 82.6216C130.418 82.4085 130.753 78.184 126.668 77.7638C122.968 77.383 122.083 80.6162 121.962 81.0596C121.69 82.0555 121.728 82.4681 120.115 82.4838C111.772 82.5641 111.766 82.6439 111.054 82.5075C110.432 82.3888 110.383 81.7121 110.376 81.6232C110.339 81.1096 110.725 77.476 113.199 74.6746C118.912 68.2048 131.436 68.581 136.749 71.5723C142.932 75.0534 142.509 81.1455 142.509 91.7125C142.509 98.0308 142.331 98.0359 142.988 104.322C143.159 105.961 142.478 105.801 140.823 105.801C132.042 105.799 131.965 105.86 131.589 105.504C130.937 104.888 131.06 102.642 131.026 102.365C131.017 102.291 130.941 102.242 130.908 102.175C130.688 101.728 130.645 101.566 130.207 101.799C130.097 101.857 130.121 102.034 130.065 102.145C129.371 103.499 129.792 104.122 128.23 104.904C125.078 106.483 122.963 106.527 122.151 106.581ZM127.205 90.8984C128.629 90.8484 128.623 90.8292 129.201 90.8479C130.427 90.8878 130.502 91.3928 130.414 93.2397C130.226 97.2036 127.143 98.2293 126.2 98.402C122.171 99.1409 120.034 95.2088 122.596 92.6761C124.187 91.1029 127.17 90.9035 127.205 90.8984Z" fill="white"/>
<path d="M198.806 100.293C198.806 101.601 198.418 102.88 197.691 103.967C196.964 105.055 195.931 105.902 194.722 106.403C193.513 106.903 192.183 107.033 190.9 106.777C189.618 106.522 188.439 105.891 187.515 104.965C186.591 104.04 185.962 102.861 185.708 101.578C185.453 100.294 185.586 98.9648 186.087 97.7567C186.589 96.5487 187.438 95.5166 188.526 94.7912C189.615 94.0657 190.894 93.6794 192.202 93.6811C193.081 93.6411 193.958 93.7848 194.778 94.1031C195.598 94.4213 196.342 94.9071 196.964 95.5294C197.585 96.1516 198.07 96.8967 198.387 97.717C198.704 98.5372 198.847 99.4146 198.806 100.293Z" fill="white"/>
</svg>
