<svg width="200" height="145" viewBox="0 0 200 145" fill="none" xmlns="http://www.w3.org/2000/svg">
<path d="M38.057 41.28H27.2845V25.2443H10.7725V41.28H0V0H10.7725V16.8692H27.2845V0H38.057V41.28Z" fill="#242424"/>
<path d="M74.4225 27.999H52.1948C52.7108 33.3178 55.0288 34.834 58.0931 34.834C61.1573 34.834 62.9991 33.2463 63.4198 30.8648H74.0097C72.1521 38.0491 66.1427 42.1215 57.974 42.1215C48.821 42.1215 41.5176 36.6678 41.5176 25.4507C41.5176 16.1151 47.9239 8.51801 58.5694 8.51801C69.2149 8.51801 74.6051 16.6549 74.6051 24.9109C74.5993 25.9428 74.5384 26.9736 74.4225 27.999ZM52.5282 21.418H63.3563C62.7609 17.6472 60.9033 15.7817 58.0296 15.7817C55.1559 15.7817 53.2506 17.4726 52.5282 21.418Z" fill="#242424"/>
<path d="M96.0786 36.6122L94.7609 39.9622C92.3764 41.4281 89.6208 42.1776 86.8224 42.1215C81.5671 42.1215 76.5977 38.827 76.5977 32.6668C76.5977 25.8476 83.0596 21.6561 93.8876 21.6561H95.9199V21.1798C95.9312 20.4001 95.8914 19.6204 95.8008 18.8459C95.6182 17.2582 94.3084 15.7896 91.9745 15.7896C89.458 15.7896 88.0052 17.3773 87.8465 20.1637L77.6773 20.2193C77.7329 12.7412 84.3774 8.49414 92.4508 8.49414C102.564 8.49414 106.033 12.9794 106.51 18.8141C106.629 20.4018 106.684 22.2912 106.684 24.2599V33.2463C106.689 35.9485 106.89 38.6468 107.288 41.3197H96.8011L96.0786 36.6122ZM95.9596 29.8486V27.7608C91.1171 27.3956 87.648 28.6578 87.648 31.8253C87.648 33.7385 89.1404 34.8181 91.2918 34.8181C91.9296 34.8148 92.5601 34.6818 93.1449 34.427C93.7297 34.1722 94.2565 33.801 94.6932 33.3361C95.1299 32.8711 95.4674 32.3222 95.6851 31.7226C95.9028 31.123 95.9962 30.4854 95.9596 29.8486Z" fill="#242424"/>
<path d="M133.771 8.67676V17.4726C125.698 16.9328 122.761 19.9256 122.761 29.5549V41.28H111.996V9.32771H122.761V15.7817L125.039 11.2965C125.841 10.4273 126.811 9.72999 127.89 9.24692C128.97 8.76385 130.136 8.50506 131.318 8.48623C132.14 8.48124 132.96 8.54497 133.771 8.67676Z" fill="#242424"/>
<path d="M169.487 41.28H158.722V36.6122L156.34 40.1448C154.546 41.4626 151.434 42.1215 148.204 42.1215C139.527 42.1215 134.145 35.477 134.145 26.0223C134.145 14.6544 141.083 8.49416 149.283 8.49416C151.911 8.49416 155.023 9.08954 156.642 10.0819L158.738 13.4875V0H169.502L169.487 41.28ZM158.722 25.7206V24.3473C158.722 17.9409 155.428 15.7896 152.197 15.7896C148.013 15.7896 145.139 18.965 145.139 25.4904C145.139 31.4681 148.124 34.8181 151.895 34.8181C155.848 34.834 158.722 32.4524 158.722 25.7206Z" fill="#242424"/>
<path d="M0 92.0862V50.8062H10.7725V92.0862H0Z" fill="#242424"/>
<path d="M28.9586 78.8607C28.9586 79.9403 28.9586 81.139 29.0221 81.9726C29.2602 85.2035 30.2764 85.9418 35.3729 85.6798V92.3878C33.2758 92.7531 31.1507 92.9338 29.0221 92.9276C21.0836 92.9276 18.7021 90.4667 18.3052 85.5687C18.1861 83.7111 18.1861 82.2186 18.1861 80.4166V67.08H13.1055V60.3799H18.1861V50.8062H28.9586V60.3799H36.0159V67.08H28.9586V78.8607Z" fill="#242424"/>
<path d="M60.006 81.3772L56.5369 92.0862H45.1055L60.006 50.8062H73.1679L88.0684 92.0862H76.3354L72.8663 81.3772H60.006ZM62.6336 73.0021H70.2942L66.4679 60.3006L62.6336 73.0021Z" fill="#242424"/>
<path d="M99.7315 80.5992C99.6947 81.5773 99.7345 82.5567 99.8506 83.5285C100.033 84.7828 100.573 85.2035 103.375 85.1162V92.4196C101.406 92.5942 99.4933 92.7133 97.0959 92.7133C92.1264 92.7133 89.3242 90.7366 89.0781 86.4975C88.959 84.8145 88.959 83.203 88.959 80.8135V50.8062H99.7315V80.5992Z" fill="#242424"/>
<path d="M116.782 80.5992C116.745 81.5773 116.785 82.5567 116.901 83.5285C117.076 84.7828 117.616 85.2035 120.426 85.1162V92.4196C118.449 92.5942 116.544 92.7133 114.147 92.7133C109.177 92.7133 106.367 90.7366 106.129 86.4975C106.01 84.8145 106.01 83.203 106.01 80.8135V50.8062H116.782V80.5992Z" fill="#242424"/>
<path d="M34.3894 131.58C34.3894 139.304 28.1022 143.13 22.5452 143.789C20.5175 143.999 18.4784 144.078 16.4406 144.028H0V102.748H16.9248C18.6826 102.705 20.4412 102.785 22.188 102.986C29.0071 103.819 32.8414 108.13 32.8414 113.512C32.8414 117.283 30.8647 120.157 26.8003 121.585C32.0079 123.086 34.3894 126.555 34.3894 131.58ZM10.7725 119.021H15.615C16.4968 119.026 17.3778 118.965 18.2505 118.839C20.2272 118.537 21.6006 117.521 21.6006 115.068C21.6006 112.734 20.3463 111.599 18.3061 111.305C17.4151 111.175 16.5154 111.114 15.615 111.123H10.7725V119.021ZM23.1565 131.223C23.1565 128.468 21.1798 127.039 18.965 126.857C18.1711 126.801 17.2344 126.801 16.2739 126.801H10.7725V135.652H16.5755C17.5361 135.652 18.4887 135.652 19.2667 135.589C20.3553 135.509 21.3703 135.009 22.0964 134.194C22.8225 133.379 23.2027 132.313 23.1565 131.223Z" fill="#242424"/>
<path d="M69.1042 130.747H46.8765C47.4163 136.065 49.7502 137.566 52.7986 137.566C55.8469 137.566 57.7045 135.978 58.1253 133.596H68.6834C66.8258 140.836 60.8482 144.909 52.6477 144.909C43.4947 144.909 36.1992 139.455 36.1992 128.238C36.1992 118.902 42.5976 111.305 53.2431 111.305C63.8886 111.305 69.3185 119.379 69.3185 127.635C69.3032 128.675 69.2317 129.714 69.1042 130.747ZM47.2019 124.166H58.03C57.4346 120.395 55.577 118.537 52.7033 118.537C49.8296 118.537 47.9243 120.22 47.2019 124.166Z" fill="#242424"/>
<path d="M84.8381 112.075V112.321H91.3556V119.021H84.8381V144.028H74.0815V119.021H70.668V112.321H74.0815V112.075C74.0815 111.123 74.0815 111.281 74.145 110.202C74.6134 104.216 78.4477 100.509 88.3152 100.509C89.5298 100.507 90.7392 100.667 91.9113 100.985V107.979C88.0215 107.328 85.2112 108.463 84.9096 111.273C84.8605 111.538 84.8366 111.806 84.8381 112.075Z" fill="#242424"/>
<path d="M126.713 128.055C126.713 138.28 120.013 144.869 109.542 144.869C99.0717 144.869 92.3398 138.28 92.3398 128.055C92.3398 117.831 99.0399 111.242 109.511 111.242C119.982 111.242 126.713 117.759 126.713 128.055ZM115.703 128.055C115.703 121.649 113.369 118.529 109.542 118.529C105.716 118.529 103.382 121.641 103.382 128.055C103.382 134.47 105.716 137.582 109.542 137.582C113.369 137.582 115.703 134.39 115.703 128.055Z" fill="#242424"/>
<path d="M151.959 111.424V120.22C143.885 119.68 140.948 122.673 140.948 132.302V144.028H130.184V112.075H140.948V118.537L143.219 114.052C144.024 113.185 144.995 112.489 146.076 112.006C147.156 111.523 148.323 111.263 149.506 111.242C150.327 111.234 151.148 111.295 151.959 111.424Z" fill="#242424"/>
<path d="M185.221 130.747H162.993C163.525 136.065 165.859 137.566 168.915 137.566C171.972 137.566 173.813 135.978 174.234 133.596H184.824C182.966 140.836 176.989 144.909 168.788 144.909C159.635 144.909 152.34 139.455 152.34 128.238C152.34 118.902 158.738 111.305 169.384 111.305C180.029 111.305 185.419 119.442 185.419 127.698C185.407 128.717 185.341 129.735 185.221 130.747ZM163.327 124.166H174.155C173.551 120.395 171.694 118.537 168.828 118.537C165.962 118.537 164.041 120.22 163.327 124.166Z" fill="#242424"/>
<path d="M199.995 138.883C199.995 140.068 199.643 141.225 198.985 142.21C198.327 143.194 197.392 143.961 196.298 144.414C195.204 144.867 194 144.985 192.838 144.753C191.677 144.522 190.611 143.951 189.774 143.113C188.937 142.275 188.368 141.208 188.137 140.046C187.907 138.885 188.027 137.681 188.481 136.587C188.936 135.494 189.704 134.559 190.689 133.903C191.675 133.246 192.833 132.896 194.017 132.898C194.812 132.862 195.606 132.992 196.349 133.28C197.091 133.568 197.765 134.008 198.327 134.571C198.89 135.134 199.329 135.809 199.616 136.551C199.903 137.294 200.032 138.088 199.995 138.883Z" fill="#242424"/>
</svg>
